<svg width="202" height="60" fill="none" xmlns="http://www.w3.org/2000/svg"><g clip-path="url(#a)"><path d="M59.9 24a25.6 25.6 0 1 0-27.4 35.2c-.6-2-1.2-4.4-1.7-6.9 1.5 1 3.1 1.9 4.8 2.6l.3 4.6c1.7 0 3.5-.2 5.3-.5v-.8c.3-1.8 1-5.2 1.2-7.4 1.2-1 2.2-2.3 3-3.7l-.1.5c-.6 4.2-1.7 8.8-2.4 10l-.9 1.2A25.6 25.6 0 0 0 60 24Zm-1.5 3.8c-.4.4-1.3.7-1.5-.6l-.2-2.2s-2-3.4-2.6-3.5c-.8 0-5.9 3.5-7.2 5-1.2 1.3-1.4 1.2-1.4 3.5 0 1.7.2 8.2 0 13.1l-8 2.2a64 64 0 0 1-7.9 1.7l-1-5.8h-.1L25.9 28l-5.2-1.8a3.8 3.8 0 0 0-4 .6 5 5 0 0 0-1.7 3.8l.5 1.5c0 .5-1.2.4-2 .4s-1-1.4-.3-3.1a22.8 22.8 0 0 1 3.9-6.6s.1-.4 1.2-.3l7.3.5v-2.3c6.8-1 13.5-1.4 20.3-1.3v1.8c2.6-1.2 5.3-1.9 8.1-2a1 1 0 0 1 .8.4l2.7 3.3 1.8 3c-.2.7-.5 1.3-.9 1.9Z" fill="#FDC305"/><path d="m56.5 21.7 1 1.3 1.8 3c-.2.6-.5 1.2-.9 1.7s-1.3.8-1.5-.5l-.2-2.2s-2-3.4-2.6-3.5c-.8 0-5.9 3.5-7.2 5-1.2 1.3-1.4 1.2-1.4 3.5 0 1.5.2 6.6.1 11.2 1.8.2 4.5.7 5.3 2 0 0-.3-7.3 7.8-3.5 0 0 .3-9.8 11.5-7.3a43.7 43.7 0 0 0-13.7-10.7ZM46 19.4c0-5.6-.5-11.1-1.5-16.6 0 0-.1-1.3-.8-.2-.6 1.2-1 2.6-1.2 4-4.3-.3-8.6-.2-12.9.3-.8-2.7-2.2-4-2.9-3.7-.6.4-.7 3.3-.7 3.3l-.3 14.2c6.7-1 13.5-1.4 20.2-1.3Z" fill="#F06351"/><path d="m45.4 47.1.2-4-8.2 2.1a64 64 0 0 1-7.8 1.8l1.1 5 .1.3c1.5 1 3.1 1.9 4.8 2.6 2.4-1.2 4.7-2.6 6.9-4.1 1.1-1 2-2.3 2.9-3.7Z" fill="#E55645"/><path d="m32 16.2 1.4 1c.4.2.6.4.6.5 0 .2-.2.4-.6.4-.4 0-1-.2-1-.3h1.2a8 8 0 0 1-1.6-1.6ZM39.5 16.3l-1 1.4c-.2 0-.3.3.1.3a8 8 0 0 0 1.2-.3l-.1-.2-1 .1.8-1.3ZM36.4 22.4c.4-.2.8-.5 1-1 .3-.6 0-.9-.4-1-.6 0-1.2 0-1.7.4-.4.3-.4.7 0 1l1 .6Z" fill="#000"/><path d="M36 23.7a2 2 0 0 1-.5.6c-.2.2-.6.4-1 .4-.5 0-1-.1-1.5-.5a2 2 0 0 1-.5-.4 1 1 0 0 0-.4-.3s.8 4.1 2.6 4.8c1.8.7 2.1-.8 2.2-1.1 0-1.2-.2-2.3-.8-3.3 0-.3 0 0-.1-.2Z" fill="#F06351"/><path d="M34.3 24.8a3.5 3.5 0 0 1-2.3-1.4.1.1 0 0 1 0-.2.1.1 0 0 1 .1 0 3.2 3.2 0 0 0 2.2 1.3 2.1 2.1 0 0 0 1.6-1l.1-.2.1.3s.4.7 1 .8c.7 0 1.1-.5 1.7-1.3a.1.1 0 0 1 .2.1c-.7 1-1.3 1.5-1.9 1.4A1.6 1.6 0 0 1 36 24a2.3 2.3 0 0 1-1.7 1Z" fill="#000"/><path d="M36.3 38.3a3.7 3.7 0 1 0 0-7.5 3.7 3.7 0 0 0 0 7.5Z" fill="#FDC305"/><path d="m41.2 31.5-3.1 1.3 1.1-5.6-7.5 9.7 3.2-1.3-1.2 5.7 7.5-9.8Zm-7.4 3.8L38 30l-.8 4 2-.8-4.2 5.4.8-4-2 .8ZM32.4 33.9a1.1 1.1 0 1 0 0-2.3 1.1 1.1 0 0 0 0 2.3ZM39 38a.8.8 0 1 0 0-1.7.8.8 0 0 0 0 1.6ZM40 35.8a.3.3 0 1 0 0-.7.3.3 0 0 0 0 .6Z" fill="#111"/><path d="M45.9 21.2a57.5 57.5 0 0 0-5.1 5.2 31.9 31.9 0 0 1-5.3 4.9c-.2-.6-1.6-1.6-1.6-1.6s-3.2-2.1-5.3-3.8l-3-3-2-.1c2.8 4.2 7 7.3 12 8.8.8-.1 3.2-1.8 5-3.2 2.1-1.9 4.1-3.8 6-6 .5-.5.9-1.2 1.1-2l-1.8.8Z" fill="#F06351"/><path d="m65.2 3.5-8.4 9.4-1.3-2L63.7 0l1.5 3.5ZM62.6 17.3l5.6-4.2-.8-3.7-5.4 4.8.6 3ZM60 49.4l6 3.1 3-2.3-6.6-2.7-2.5 1.9ZM2 6l3-3.4 9.3 9-1.2 2.3-11.2-8ZM7.4 16.3 2.7 13l-2.4 4 5.1 2.3 2-3.1ZM14 52.5 9.3 56l2.8 3.6 4-4-2.3-3Z" fill="#FDC305"/><path d="m26 28-5.3-1.8a3.8 3.8 0 0 0-4 .6 5 5 0 0 0-1.7 3.8l.5 1.5c0 .5-1.2.4-2 .4s-1-1.4-.3-3.1c.5-1.3 1-2.6 1.8-3.7C9.6 28.5 0 35 0 35c2.7-.2 5.5-.1 8.2.2 5.2.5 5 4.7 5 4.7 1.8-.5 3.7-1 5.6-1.1 2.1-.2 2.3 2 2.3 2l.5 4c.8-1 1.7-1.7 2.7-2.4a6 6 0 0 1 4.3-1.3L26 28Z" fill="#F06351"/><path d="M85.7 42a8.3 8.3 0 0 1-1.4-5.2v-7.5c-.2-1.8.3-3.7 1.3-5.2 1-1.2 2.6-1.8 4.8-1.8 2.2 0 3.7.5 4.5 1.6 1 1.2 1.5 2.8 1.4 4.5V30H92v-1.9l-.1-1.5c0-.4-.2-.7-.5-1a1.6 1.6 0 0 0-1.1-.3 1.5 1.5 0 0 0-1.5.7c-.3.7-.4 1.5-.4 2.2V38c0 .7.1 1.5.4 2.1a1.5 1.5 0 0 0 1.5.8 1.3 1.3 0 0 0 1.4-.8L92 38v-2h4.1v1.7c.2 1.6-.3 3.2-1.2 4.6-.9 1-2.4 1.6-4.6 1.6-2.1 0-3.8-.6-4.7-1.8ZM102 22.6h4.7l4 21h-4l-.7-4.7h-3.3l-.8 4.6h-4l4-21Zm3.6 13.7-1.3-8.4-1.3 8.4h2.6ZM113.7 25.7h-3.2v-3.1h10.7v3.1H118v17.8h-4.3V25.7Z" fill="#111"/><path d="M129.6 22.6h8.1v2.2h-5.2v6.9h4.3v2h-4.3v7.8h5.3v2h-8.2v-21ZM140.2 22.6h2l6 14v-14h2.4v21h-1.9l-6-14.3v14.2h-2.5v-21ZM153.8 22.6h8.1v2.2h-5.2v6.9h4.3v2h-4.2v7.8h5.2v2h-8.2v-21ZM164.3 22.6h4.3a7 7 0 0 1 4.6 1.3c1 .9 1.5 2.3 1.5 4.3 0 2.6-.8 4.2-2.6 4.8l3 10.5h-2.8l-2.8-9.8h-2.2v9.8h-3v-21Zm4 9c1 0 2-.2 2.8-.8a3.6 3.6 0 0 0 .8-2.7c0-.7-.1-1.3-.3-2a1.9 1.9 0 0 0-1-1c-.7-.3-1.4-.5-2-.4h-1.4v7l1.2-.1ZM178.7 42a9.2 9.2 0 0 1-1.3-5.4v-7c0-1.3.1-2.6.5-4 .3-1 .9-1.8 1.7-2.4a6 6 0 0 1 3.4-.8 5.3 5.3 0 0 1 4.2 1.5 7 7 0 0 1 1.3 4.6v.8h-2.8v-.7c0-.7 0-1.5-.2-2.3 0-.5-.3-1-.7-1.2a3 3 0 0 0-1.8-.4c-.6 0-1.3.1-1.8.5-.4.4-.6 1-.7 1.5-.2.8-.2 1.7-.2 2.5V37c0 1.2.1 2.4.6 3.5a2.8 2.8 0 0 0 4.5-.1c.4-1.2.7-2.4.6-3.7v-1.5h-2.7v-2h5.3v10.3h-1.8l-.3-2.4a3.7 3.7 0 0 1-3.7 2.7 4.7 4.7 0 0 1-4.1-1.8ZM194.7 36.1l-4.5-13.5h2.7l3.2 10.1 3.2-10.1h2.7L197.5 36v7.4h-2.8v-7.4Z" fill="#444"/></g><defs><clipPath id="a"><path fill="#fff" d="M0 0h202v59.5H0z"/></clipPath></defs></svg>