<svg width="45" height="1" viewBox="0 0 45 1" fill="none" xmlns="http://www.w3.org/2000/svg">
<g opacity="0.24">
<line y1="0.5" x2="1" y2="0.5" stroke="black"/>
<line x1="2" y1="0.5" x2="3" y2="0.5" stroke="black"/>
<line x1="4" y1="0.5" x2="5" y2="0.5" stroke="black"/>
<line x1="6" y1="0.5" x2="7" y2="0.5" stroke="black"/>
<line x1="8" y1="0.5" x2="9" y2="0.5" stroke="black"/>
<line x1="10" y1="0.5" x2="11" y2="0.5" stroke="black"/>
<line x1="12" y1="0.5" x2="13" y2="0.5" stroke="black"/>
<line x1="14" y1="0.5" x2="15" y2="0.5" stroke="black"/>
<line x1="16" y1="0.5" x2="17" y2="0.5" stroke="black"/>
<line x1="18" y1="0.5" x2="19" y2="0.5" stroke="black"/>
<line x1="20" y1="0.5" x2="21" y2="0.5" stroke="black"/>
<line x1="22" y1="0.5" x2="23" y2="0.5" stroke="black"/>
<line x1="24" y1="0.5" x2="25" y2="0.5" stroke="black"/>
<line x1="26" y1="0.5" x2="27" y2="0.5" stroke="black"/>
<line x1="28" y1="0.5" x2="29" y2="0.5" stroke="black"/>
<line x1="30" y1="0.5" x2="31" y2="0.5" stroke="black"/>
<line x1="32" y1="0.5" x2="33" y2="0.5" stroke="black"/>
<line x1="34" y1="0.5" x2="35" y2="0.5" stroke="black"/>
<line x1="36" y1="0.5" x2="37" y2="0.5" stroke="black"/>
<line x1="38" y1="0.5" x2="39" y2="0.5" stroke="black"/>
<line x1="40" y1="0.5" x2="41" y2="0.5" stroke="black"/>
<line x1="42" y1="0.5" x2="43" y2="0.5" stroke="black"/>
<line x1="44" y1="0.5" x2="45" y2="0.5" stroke="black"/>
</g>
</svg>
