<svg width="29" height="31" fill="none" xmlns="http://www.w3.org/2000/svg"><g clip-path="url(#a)" fill="#fff"><path d="M20.78 18.47c-1.71 0-3.1 1.48-3.1 3.3 0 1.83 1.4 3.3 3.1 3.3 1.7 0 3.08-1.47 3.08-3.3 0-1.82-1.38-3.3-3.08-3.3Zm0 5.02c-.89 0-1.6-.77-1.6-1.71 0-.95.71-1.72 1.6-1.72.88 0 1.6.77 1.6 1.72 0 .94-.72 1.7-1.6 1.7ZM11.6-.01c-1.75 0-3.18 1.52-3.18 3.4 0 1.89 1.43 3.41 3.19 3.41s3.18-1.52 3.18-3.4c0-1.89-1.42-3.41-3.18-3.41Zm0 5.48c-1.06 0-1.93-.93-1.93-2.07 0-1.15.87-2.07 1.94-2.07 1.07 0 1.93.92 1.93 2.07 0 1.14-.86 2.07-1.93 2.07ZM8.23 17.61c-1.3 0-2.34 1.12-2.34 2.5 0 1.39 1.04 2.5 2.34 2.5 1.3 0 2.34-1.11 2.34-2.5 0-1.38-1.05-2.5-2.34-2.5ZM8 19.5c-.46 0 1.16 1.1 1.16.61 0-.49-1.62.39-1.16.39.46 0 1.06-.88 1.06-.39 0 .5-.6-.61-1.06-.61ZM18.5 9.76s3.04-.84 6.18 1.5c.9.76 1.76 1.33 1.15 2.12-.34.34-.64.66-1.72-.53a6.92 6.92 0 0 0-5.61-1.44c-1.13.24-1.96.55-3.56 2.15a8.27 8.27 0 0 1-6.5 2.5c-2.52-.24-3.84-1.27-5.24-2.55-.3-.42-.3-.87-.12-1.13.17-.26.83-.52 1.2-.13.37.4 2.1 1.97 3.82 2.07 1.72.1 3.44.21 5.74-1.96 2.3-2.18 3.46-2.34 4.66-2.6Z"/><mask id="b"><path d="M28.3 27.31V8.66c0-.58-.38-.65-.53-.66h-.5c-.5 0-.54.56-.55.74v18.6a2.68 2.68 0 0 1-.82 1.89c-.8.7-1.62.6-1.62.6s-20.17 0-20.65-.03a2.3 2.3 0 0 1-1.6-1c-.57-.8-.46-1.85-.46-1.85V8.8C1.57 7.97.9 8 .9 8H.59C.05 8 0 8.59 0 8.78V27.3c0 1.34.45 2.4 1.55 3.34s2.37.86 2.37.86H24.5c.86 0 1.99-.42 2.92-1.56.93-1.14.87-2.64.87-2.64Z"/></mask><path d="M28.3 27.31V8.66c0-.58-.38-.65-.53-.66h-.5c-.5 0-.54.56-.55.74v18.6a2.68 2.68 0 0 1-.82 1.89c-.8.7-1.62.6-1.62.6s-20.17 0-20.65-.03a2.3 2.3 0 0 1-1.6-1c-.57-.8-.46-1.85-.46-1.85V8.8C1.57 7.97.9 8 .9 8H.59C.05 8 0 8.59 0 8.78V27.3c0 1.34.45 2.4 1.55 3.34s2.37.86 2.37.86H24.5c.86 0 1.99-.42 2.92-1.56.93-1.14.87-2.64.87-2.64Z"/><path d="M28.3 27.31h-20v.78l20-.78ZM27.76 8l.7-19.99-.35-.01h-.35V8Zm-1.05.74-20-.15V8.74h20Zm0 .06h-20 20Zm0 18.54-19.98-.76v.01l19.98.75Zm-.82 1.89 13.04 15.16.43-.37.41-.4-13.88-14.4Zm-1.62.6 2.26-19.87-1.12-.13h-1.14v20ZM3.63 29.8.23 49.51l1.14.2 1.15.06 1.1-19.97Zm-1.6-1-16.35 11.52L2.02 28.8Zm-.46-1.85 19.89 2.1.11-1.05v-1.05h-20ZM.9 8v20h.38l.4-.01L.9 8Zm-.9.78-20-.3v.3H0Zm1.55 21.87-13.03 15.18L1.55 30.65Zm2.37.86v-20h-.64l-.64.04L3.92 31.5Zm23.5-1.56L42.91 42.6 27.43 29.95Zm20.87-2.64V8.66h-40V27.3h40Zm0-18.65a20.54 20.54 0 0 0-19.81-20.64l-1.42 39.97A19.46 19.46 0 0 1 8.29 8.66h40ZM27.77-12h-.5v40h.5v-40Zm-.5 0A20.47 20.47 0 0 0 8.55.12c-1.8 4-1.83 7.55-1.84 8.47l40 .3c0 .73-.01 3.91-1.66 7.6A19.48 19.48 0 0 1 27.26 28v-40ZM6.71 8.74v.05h40v-.05h-40Zm0 .05h40-40Zm0 .02v10.5a8359.27 8359.27 0 0 1 0 7.26c0 .79 0 .45.02.01L46.7 28.1c.02-.51.02-1.37.02-1.45a1335.27 1335.27 0 0 0 0-7.34V8.8l-40 .02Zm.02 17.78c.05-1.35.38-7.04 5.28-11.76l27.76 28.8a22.68 22.68 0 0 0 6.93-15.55L6.74 26.6Zm6.12-12.53a17.51 17.51 0 0 1 12.44-4.2 19.18 19.18 0 0 1 1.2.1h.03l-2.25 19.87C22.02 49.7 22.03 49.7 22.04 49.7h.02a4.8 4.8 0 0 0 .27.03 20.81 20.81 0 0 0 2.6.1 22.49 22.49 0 0 0 14.01-5.44L12.86 14.06Zm11.42 15.77v-20H23.42A20001.73 20001.73 0 0 1 4.74 9.8c-1.07 0-.61-.01 0 .02L2.52 49.77c.97.06 7.17.05 11.6.06h10.16v-20ZM7.02 10.09c.44.08 2.53.43 4.94 1.66 2.57 1.3 4.77 3.2 6.4 5.51l-32.68 23.07c5 7.07 11.88 8.72 14.55 9.18l6.8-39.42Zm11.35 7.18a17.34 17.34 0 0 1 3.13 11.39 18.54 18.54 0 0 1-.04.34v.03L1.57 26.95c-19.89-2.1-19.9-2.1-19.9-2.09v.04a6.17 6.17 0 0 0-.03.36 21.72 21.72 0 0 0 .08 4.66 22.67 22.67 0 0 0 3.96 10.4l32.69-23.05Zm3.2 9.68V8.8h-40v18.14h40Zm0-18.14A20.74 20.74 0 0 0 1.92-11.97 20.43 20.43 0 0 0 .17-12H.14S.12-11.99.9 8c.77 19.99.76 19.99.75 19.99h-.08a28.57 28.57 0 0 1-1.65-.01A19.32 19.32 0 0 1-18.43 8.8h40ZM.9-11.99H.59V28h.3v-40Zm-.31 0A20.52 20.52 0 0 0-18.03-.16 21.17 21.17 0 0 0-20 8.5l40 .58c-.01.75-.05 4-1.79 7.71A19.44 19.44 0 0 1 .6 28v-40ZM-20 8.77V27.3h40V8.78h-40Zm0 18.53c0 7.07 2.92 13.7 8.52 18.52l26.05-30.36a15.62 15.62 0 0 1 4 5.38A15.72 15.72 0 0 1 20 27.3h-40Zm8.52 18.52a23.59 23.59 0 0 0 16.56 5.64h.11s.02 0-1.27-19.96L2.65 11.55h.02a3.12 3.12 0 0 1 .22-.02 19.75 19.75 0 0 1 1.83 0 16.39 16.39 0 0 1 9.85 3.94l-26.05 30.36ZM3.92 31.5v20h3.1a546786.3 546786.3 0 0 1 17.54 0l-.11-40H3.93v20Zm20.64 20c7.1-.03 13.8-3.34 18.35-8.9L11.93 17.3a16.17 16.17 0 0 1 12.52-5.8l.11 40Zm18.36-8.91a23.97 23.97 0 0 0 5.37-15.11 22.35 22.35 0 0 0-.01-.9v-.03c0-.01 0-.02-19.99.75a3067.94 3067.94 0 0 1-19.98.75 9.03 9.03 0 0 1-.02-.79 16.44 16.44 0 0 1 .3-2.93c.27-1.4 1.02-4.2 3.34-7.04l30.99 25.3Z" mask="url(#b)"/></g><defs><clipPath id="a"><path fill="#fff" d="M0 0h29v31H0z"/></clipPath></defs></svg>