<svg width="32" height="33" fill="none" xmlns="http://www.w3.org/2000/svg"><circle cx="21.2" cy="11.3" fill="#fff" r="1.1"/><circle cx="10.3" cy="11.3" fill="#fff" r="1.1"/><circle cx="10.3" cy="24.4" fill="#fff" r="1.1"/><circle cx="15.8" cy="26.5" fill="#fff" r="1.1"/><circle cx="7.1" cy="17.8" fill="#fff" r="1.1"/><circle cx="24.5" cy="17.8" fill="#fff" r="1.1"/><circle cx="21.2" cy="24.4" fill="#fff" r="1.1"/><mask id="a" fill="#fff"><path fill-rule="evenodd" clip-rule="evenodd" d="M21 29a1 1 0 0 1 1.1.3L24 31a.7.7 0 0 0 1-1l-1.4-1.3c-.4-.5-.4-1.2 0-1.6 2.7-2.3 4.4-5.7 4.4-9.6C28 10.6 22.5 5 15.8 5 9 5 3.5 10.6 3.5 17.6c0 3.8 1.7 7.2 4.3 9.6a1 1 0 0 1 0 1.5l-1.4 1.5a.7.7 0 1 0 1 1l1.9-2a1 1 0 0 1 1.2-.2A11.9 11.9 0 0 0 21 29Zm-5.2-.2c6 0 10.8-5 10.8-11.2A11 11 0 0 0 15.8 6.4c-6 0-11 5-11 11.2a11 11 0 0 0 11 11.2ZM15 17.3V9.9a.8.8 0 1 1 1.6 0V18.1c0 .5-.4.8-.8.8a.8.8 0 0 1-.8-.7v-.9Z"/></mask><path fill-rule="evenodd" clip-rule="evenodd" d="M21 29a1 1 0 0 1 1.1.3L24 31a.7.7 0 0 0 1-1l-1.4-1.3c-.4-.5-.4-1.2 0-1.6 2.7-2.3 4.4-5.7 4.4-9.6C28 10.6 22.5 5 15.8 5 9 5 3.5 10.6 3.5 17.6c0 3.8 1.7 7.2 4.3 9.6a1 1 0 0 1 0 1.5l-1.4 1.5a.7.7 0 1 0 1 1l1.9-2a1 1 0 0 1 1.2-.2A11.9 11.9 0 0 0 21 29Zm-5.2-.2c6 0 10.8-5 10.8-11.2A11 11 0 0 0 15.8 6.4c-6 0-11 5-11 11.2a11 11 0 0 0 11 11.2ZM15 17.3V9.9a.8.8 0 1 1 1.6 0V18.1c0 .5-.4.8-.8.8a.8.8 0 0 1-.8-.7v-.9Z" fill="#fff"/><path d="M9.3 29.2 12 32l-2.8-2.8Zm1.2-.2 1.8-3.6-1.8 3.6Zm-3.1 2.1-2.9-2.8 2.9 2.8Zm-1-1-2.8-2.7 2.8 2.8Zm17.2-1.3-2.9 2.8 2.9-2.8Zm0-1.6-2.6-3 2.7 3Zm-15.8 0-2.7 3 2.7-3Zm0 1.5L5 26l2.9 2.8ZM25 30.2l3-2.8-3 2.8Zm-1 1-2.8 2.7 2.9-2.8Zm-1.8-2 2.9-2.7-2.9 2.8Zm-1.2-.1-1.7-3.6 1.7 3.6Zm-1.6 3 1.8 1.8 5.7-5.6-1.8-1.8-5.7 5.5Zm8.5-4.7L26.4 26l-5.7 5.6 1.4 1.4 5.7-5.6Zm-1.5 2.8c3.5-3 5.7-7.6 5.7-12.6h-8c0 2.7-1.2 5-3 6.6l5.3 6ZM32 17.6C32 8.6 24.8 1 15.8 1v8c4.4 0 8.2 3.7 8.2 8.6h8ZM15.8 1C6.7 1-.5 8.6-.5 17.6h8c0-4.9 3.8-8.6 8.3-8.6V1ZM-.5 17.6c0 5 2.2 9.5 5.6 12.5l5.3-6a8.8 8.8 0 0 1-2.9-6.5h-8ZM5 26l-1.4 1.5L9.3 33l1.4-1.5L5 25.9Zm5.3 8 1.8-2-5.7-5.5-1.9 2 5.8 5.5Zm-1.6-1.3c2.2 1 4.6 1.6 7 1.6v-8c-1.2 0-2.4-.3-3.4-.8l-3.6 7.2Zm7 1.6c2.5 0 4.9-.5 7-1.5l-3.5-7.2c-1 .5-2.2.7-3.4.7v8Zm0-1.4a15 15 0 0 0 15-15.2h-8a7 7 0 0 1-7 7.2v8Zm15-15.2a15 15 0 0 0-15-15.2v8a7 7 0 0 1 7 7.2h8Zm-15-15.2A15 15 0 0 0 1 17.6h8a7 7 0 0 1 6.9-7.2v-8ZM1 17.6a15 15 0 0 0 14.9 15.2v-8a7 7 0 0 1-7-7.2h-8Zm11.7-.3v.5h8v-.5h-8Zm0 .5v.3h8v-.3h-8Zm6.4.4v-.4h-8v.4h8Zm0-.4v-.5h-8v.5h8Zm0-.5v-3.8h-8v3.8h8Zm0-3.8V9.9h-8v3.6h8Zm-6.4-3.6v3.6h8V9.9h-8Zm0 3.6v3.8h8v-3.8h-8Zm3.2-8.3A4.8 4.8 0 0 0 11 9.9h8c0 1.8-1.4 3.3-3.2 3.3v-8Zm-3.2 13c0-1.8 1.4-3.3 3.2-3.3v8c2.6 0 4.8-2.1 4.8-4.8h-8ZM12 32a3 3 0 0 1-3.4.6l3.6-7.2a5 5 0 0 0-5.9 1l5.7 5.6Zm-8.5 2a4.7 4.7 0 0 0 6.7 0l-5.8-5.7a3.3 3.3 0 0 1 4.8 0L3.6 34Zm0-6.6a4.7 4.7 0 0 0 0 6.5l5.7-5.6a3.3 3.3 0 0 1 0 4.7l-5.7-5.6ZM26.5 26a3 3 0 0 1-.2 4.2l-5.3-6a5 5 0 0 0-.3 7.4l5.8-5.6ZM15.8 13.2a3.2 3.2 0 0 1-3.2-3.3h8c0-2.6-2.2-4.7-4.8-4.7v8ZM5 30.2a3 3 0 0 1-.1-4.3l5.7 5.6a5 5 0 0 0-.3-7.3l-5.3 6Zm22.7 3.7a4.7 4.7 0 0 0 0-6.5L22.1 33a3.3 3.3 0 0 1 0-4.7l5.7 5.6Zm-6.7 0a4.7 4.7 0 0 0 6.7 0l-5.7-5.6a3.3 3.3 0 0 1 4.7 0L21.1 34Zm-5.3-19c1.8 0 3.2 1.5 3.2 3.3h-8c0 2.6 2.1 4.7 4.8 4.7v-8ZM25 26.5a5 5 0 0 0-5.8-1l3.5 7.2a3 3 0 0 1-3.4-.7l5.7-5.5Z" fill="#fff" mask="url(#a)"/><path fill="#fff" d="M15 6V2h1.5v4z"/><rect x="8" y="2" width="15.5" height="1.5" rx=".8" fill="#fff"/></svg>