<svg width="134" height="56" fill="none" xmlns="http://www.w3.org/2000/svg"><path d="M123.1 5.8c1.2-1.8 2.7-3.4 4.5-4.6 1-.7 1.6-.7 2.2.6.8 1.9 1.5 3.9.9 6a2.3 2.3 0 0 0 .4 2.1l1.6 2.3a6.3 6.3 0 0 1 .9 6.2c-.4 1-.4 2-.2 3.1.2 1 .2 2 0 3a3.8 3.8 0 0 1-2.7 3.2c-1.3.2-2.4 1-3.2 2a1 1 0 0 1-.9.5c-1.2.2-4.2-2.5-4.2-3.7v-.6c.1-3.6-.1-3.9-3.4-5.4-.7-.2-1.3-.7-1.8-1.2-.6-.8-1.4-.7-2.3-.4-.9.3-1.4.9-1.3 1.9.3 2.4.4 4.9.3 7.3 0 .3 0 .6.2.8 3.1 4.5 4.3 9.8 5.8 14.9 1.2 3.9 3.4 6 7.4 6.3l1.9.3a4.2 4.2 0 0 1 3.4 3.2c.7 2.1.3 2.6-1.8 2.6h-6.5c-.8 0-1.7-.2-2.3-.8-1-.9-2.2-1.5-3.4-2a7.3 7.3 0 0 1-3.4-2.6 28.6 28.6 0 0 0-4-4.5c-2.8-2.9-5.8-5.7-8.4-8.7-2-2-3.1-4.8-3.2-7.6 0-.9-.2-1.3-1.2-.9a2 2 0 0 1-1 .3c-2.8 0-4.2 1.7-5.2 4.2-.9 2.1-2.1 4.1-3.2 6.2-.6 1.3-1 2.7-1 4.2 0 2.4.6 3.2 2.8 4 1.4.5 2.7 1 3.4 2.4.8 1.6.6 2-1.1 2.1h-6.8a1.9 1.9 0 0 1-1.9-1.1l-1.8-3a6 6 0 0 1-.7-5.4c.4-1.7.5-3.5.1-5.3a8.4 8.4 0 0 1 1.7-7c.6-.7.6-1-.4-1.2a50 50 0 0 1-11.9-4.2c-3.2-1.2-3.8-1-4.7 2.3-.8 2.8-1.6 5.6-2.2 8.5a17 17 0 0 0 1.1 9.2c.4 1.2 1.6 1.1 2.5 1.4 2 .6 3.7 1.4 4.5 3.5.7 1.6.6 1.8-1.1 1.8h-5.2c-1.5 0-3-.5-4.2-1.4-4.8-3.2-6.2-8.1-6.6-13.4-.2-3.3-2-5.9-4.1-8.4-.4-.5-.8-.7-1.4-.3a44.3 44.3 0 0 1-6.7 3c-4.8 1.7-9 4.8-12.2 8.8-1.2 1.5-2 3.2-2.2 5.1-.3 1.8.2 2.6 2 3.1s2.7 1.5 2.9 3.4c.1.8-.2 1.2-1 1.2h-8.1a1.7 1.7 0 0 1-1.3-.8 8.6 8.6 0 0 1-1.9-5.5c0-3.5.2-7 .9-10.3a6.3 6.3 0 0 1 3.4-4.8c5.9-2.8 9-8.1 11.8-13.6.6-1.1.1-1.3-.9-1.2-2.8.4-5.5 1.5-7.7 3.2-3 2.1-5.7 4.5-8.3 7.1a16.7 16.7 0 0 1-10.3 4.9C3.1 32.5-.3 28.4 0 21.8c0-2.3 1-4.4 2.4-6.1a4.3 4.3 0 0 1 4.5-1.5c1.5.4 1.9 1.2 1.3 2.7l-1 1.7c-.4.6-.8 1.3-1 2-1.1 3 .4 5.1 3.5 5.4 3.3.3 6-1.1 8.5-3.1a45 45 0 0 0 8-8.3 20.8 20.8 0 0 1 14.4-8.1c2.3-.3 4.3-1.3 6.5-1.9 4.1-1.3 8.4-1.9 12.7-1.8 2 0 4-.3 5.8-1.1 4.9-2 10-2 15.1-1 4 .8 8 1.8 11.9 2.8 2.3.4 4.7.4 7-.2 4.4-1.1 8.9-1.8 13.4-2 3-.1 6 .4 8.6 1.7 2 .9 2 .9 1.5 2.8Z" fill="#000"/></svg>